<svg width="18" height="18" viewBox="0 0 18 18" fill="none" xmlns="http://www.w3.org/2000/svg">
<path d="M1.50049 1.5L16.5005 16.5M7.20405 7.26137C6.76852 7.71129 6.50049 8.32435 6.50049 9C6.50049 10.3807 7.61978 11.5 9.00049 11.5C9.68589 11.5 10.3069 11.2242 10.7585 10.7775M4.41715 4.53929C2.8344 5.58361 1.62885 7.15328 1.04883 8.99997C2.11071 12.3809 5.26929 14.8333 9.00067 14.8333C10.6581 14.8333 12.2025 14.3495 13.5003 13.5153M8.16715 3.20783C8.4413 3.18061 8.71934 3.16667 9.00065 3.16667C12.732 3.16667 15.8906 5.61909 16.9525 9.00003C16.7185 9.74498 16.3827 10.4448 15.9615 11.0833" stroke="#131A29" stroke-width="1.4" stroke-linecap="round" stroke-linejoin="round"/>
</svg>
